<svg width="25" height="24" viewBox="0 0 25 24" fill="none" xmlns="http://www.w3.org/2000/svg">
<path d="M2.36844 7.34242L2.36845 7.34245L2.37415 7.33854L11.3741 1.16712L11.3742 1.16713L11.3787 1.16398C11.7708 0.890849 12.2194 0.75 12.75 0.75C13.2806 0.75 13.7292 0.890849 14.1213 1.16398L14.1213 1.16399L14.1258 1.16712L23.1258 7.33854L23.1258 7.33858L23.1323 7.34294C23.4094 7.52871 23.6203 7.75944 23.7743 8.04051C23.9278 8.32042 24.0007 8.60754 24 8.91256V8.91428V21.2571C24 21.7879 23.8044 22.2369 23.3619 22.6414C22.9175 23.0478 22.3943 23.2507 21.7508 23.25H21.75H17.25C16.9942 23.25 16.8246 23.1767 16.689 23.0524L16.182 23.605L16.689 23.0524C16.5558 22.9301 16.5006 22.8042 16.5 22.6275V15.7714C16.5 15.1712 16.2666 14.6447 15.8231 14.2406C15.3847 13.8412 14.8441 13.6513 14.2516 13.65H14.25H11.25C10.6558 13.65 10.1134 13.84 9.67496 14.2423C9.23447 14.6465 9.00154 15.1713 9 15.7695V15.7714V22.6286C9 22.8055 8.94527 22.9309 8.81192 23.0529C8.6751 23.178 8.50544 23.2505 8.25161 23.25H8.25H3.75C3.10462 23.25 2.58127 23.0466 2.13808 22.6414C1.69705 22.2382 1.50082 21.7891 1.5 21.2566V8.91428C1.5 8.60866 1.57346 8.32092 1.72717 8.04051C1.88151 7.75896 2.09222 7.52811 2.36844 7.34242Z" stroke="#0760FB" stroke-width="1.5"/>
</svg>
