<svg width="25" height="24" viewBox="0 0 25 24" fill="none" xmlns="http://www.w3.org/2000/svg">
<path d="M1.25 8.194C1.25 8.08694 1.33683 8 1.444 8H11.056C11.1075 8 11.1568 8.02044 11.1932 8.05682C11.2296 8.0932 11.25 8.14255 11.25 8.194C11.25 8.24545 11.2296 8.2948 11.1932 8.33118C11.1568 8.36756 11.1075 8.388 11.056 8.388H1.444C1.39255 8.388 1.3432 8.36756 1.30682 8.33118C1.27044 8.2948 1.25 8.24545 1.25 8.194ZM1.25 15.4C1.25 15.2929 1.33683 15.206 1.444 15.206H23.056C23.1075 15.206 23.1568 15.2264 23.1932 15.2628C23.2296 15.2992 23.25 15.3485 23.25 15.4C23.25 15.4514 23.2296 15.5008 23.1932 15.5372C23.1568 15.5736 23.1075 15.594 23.056 15.594H1.444C1.39255 15.594 1.3432 15.5736 1.30682 15.5372C1.27044 15.5008 1.25 15.4515 1.25 15.4ZM1.30682 22.4688C1.3432 22.4324 1.39255 22.412 1.444 22.412H15.856C15.9075 22.412 15.9568 22.4324 15.9932 22.4688C16.0296 22.5052 16.05 22.5545 16.05 22.606C16.05 22.6575 16.0296 22.7068 15.9932 22.7432C15.9568 22.7796 15.9075 22.8 15.856 22.8H1.444C1.39255 22.8 1.3432 22.7796 1.30682 22.7432C1.27044 22.7068 1.25 22.6574 1.25 22.606C1.25 22.5545 1.27044 22.5052 1.30682 22.4688Z" stroke="#0760FB" stroke-width="2"/>
</svg>
