<svg width="25" height="24" viewBox="0 0 25 24" fill="none" xmlns="http://www.w3.org/2000/svg">
<mask id="path-1-inside-1_1_56" fill="white">
<path fill-rule="evenodd" clip-rule="evenodd" d="M12.9256 1.44H11.5744L10.8004 4.5336L10.024 4.7736C9.57158 4.91301 9.13325 5.09461 8.7148 5.316L7.996 5.6964L5.26 4.0548L4.3048 5.0112L5.9464 7.7472L5.566 8.4648C5.3442 8.88321 5.1622 9.32154 5.0224 9.774L4.7836 10.5504L1.69 11.3244V12.6756L4.7836 13.4496L5.0236 14.226C5.162 14.6804 5.3428 15.1168 5.566 15.5352L5.9464 16.254L4.3048 18.99L5.2612 19.9452L7.9972 18.3036L8.7148 18.684C9.1332 18.9064 9.5696 19.0876 10.024 19.2276L10.8004 19.4664L11.5744 22.56H12.9256L13.6996 19.4664L14.476 19.2264C14.9284 19.087 15.3667 18.9054 15.7852 18.684L16.504 18.3036L19.24 19.9452L20.1952 18.9888L18.5536 16.2528L18.934 15.5352C19.1564 15.1168 19.3376 14.6804 19.4776 14.226L19.7164 13.4496L22.81 12.6756V11.3244L19.7164 10.5504L19.4764 9.774C19.337 9.32158 19.1554 8.88325 18.934 8.4648L18.5536 7.746L20.1952 5.01L19.2388 4.0548L16.5028 5.6964L15.7852 5.316C15.3668 5.0942 14.9285 4.9122 14.476 4.7724L13.6996 4.5336L12.9256 1.44ZM16.4596 4.044L18.6592 2.724C18.8886 2.58643 19.1573 2.52943 19.4228 2.56204C19.6882 2.59465 19.9352 2.71501 20.1244 2.904L21.346 4.1256C21.535 4.31484 21.6553 4.56179 21.688 4.82725C21.7206 5.0927 21.6636 5.36144 21.526 5.5908L20.206 7.7904C20.47 8.2864 20.686 8.8064 20.854 9.3504L23.3416 9.9732C23.6011 10.0382 23.8314 10.1881 23.996 10.399C24.1606 10.6098 24.25 10.8697 24.25 11.1372V12.8628C24.25 13.1303 24.1606 13.3902 23.996 13.601C23.8314 13.8119 23.6011 13.9618 23.3416 14.0268L20.854 14.6496C20.686 15.1936 20.47 15.7136 20.206 16.2096L21.526 18.4092C21.6636 18.6386 21.7206 18.9073 21.688 19.1728C21.6553 19.4382 21.535 19.6852 21.346 19.8744L20.1244 21.096C19.9352 21.285 19.6882 21.4053 19.4228 21.438C19.1573 21.4706 18.8886 21.4136 18.6592 21.276L16.4596 19.956C15.9636 20.22 15.4436 20.436 14.8996 20.604L14.2768 23.0916C14.2118 23.3511 14.0619 23.5814 13.851 23.746C13.6402 23.9106 13.3803 24 13.1128 24H11.3872C11.1197 24 10.8598 23.9106 10.649 23.746C10.4381 23.5814 10.2882 23.3511 10.2232 23.0916L9.6004 20.604C9.06123 20.4374 8.53893 20.2204 8.0404 19.956L5.8408 21.276C5.61144 21.4136 5.3427 21.4706 5.07725 21.438C4.81179 21.4053 4.56484 21.285 4.3756 21.096L3.154 19.8744C2.96501 19.6852 2.84465 19.4382 2.81204 19.1728C2.77943 18.9073 2.83643 18.6386 2.974 18.4092L4.294 16.2096C4.02957 15.7111 3.81261 15.1888 3.646 14.6496L1.1584 14.0268C0.899103 13.9618 0.668918 13.8122 0.504355 13.6015C0.339792 13.3909 0.250274 13.1313 0.25 12.864V11.1384C0.250007 10.8709 0.339403 10.611 0.503986 10.4002C0.66857 10.1893 0.898904 10.0394 1.1584 9.9744L3.646 9.3516C3.814 8.8076 4.03 8.2876 4.294 7.7916L2.974 5.592C2.83643 5.36264 2.77943 5.0939 2.81204 4.82845C2.84465 4.56299 2.96501 4.31604 3.154 4.1268L4.3756 2.904C4.56484 2.71501 4.81179 2.59465 5.07725 2.56204C5.3427 2.52943 5.61144 2.58643 5.8408 2.724L8.0404 4.044C8.5364 3.78 9.0564 3.564 9.6004 3.396L10.2232 0.9084C10.2882 0.649103 10.4378 0.418918 10.6485 0.254355C10.8591 0.0897924 11.1187 0.000274371 11.386 0H13.1116C13.3791 7.03252e-06 13.639 0.0894026 13.8499 0.253986C14.0607 0.41857 14.2106 0.648904 14.2756 0.9084L14.8984 3.396C15.4424 3.564 15.9624 3.78 16.4584 4.044H16.4596ZM12.25 15.36C13.1411 15.36 13.9958 15.006 14.6259 14.3759C15.256 13.7458 15.61 12.8911 15.61 12C15.61 11.1089 15.256 10.2542 14.6259 9.62412C13.9958 8.994 13.1411 8.64 12.25 8.64C11.3589 8.64 10.5042 8.994 9.87412 9.62412C9.244 10.2542 8.89 11.1089 8.89 12C8.89 12.8911 9.244 13.7458 9.87412 14.3759C10.5042 15.006 11.3589 15.36 12.25 15.36ZM12.25 16.8C10.977 16.8 9.75606 16.2943 8.85589 15.3941C7.95571 14.4939 7.45 13.273 7.45 12C7.45 10.727 7.95571 9.50606 8.85589 8.60589C9.75606 7.70571 10.977 7.2 12.25 7.2C13.523 7.2 14.7439 7.70571 15.6441 8.60589C16.5443 9.50606 17.05 10.727 17.05 12C17.05 13.273 16.5443 14.4939 15.6441 15.3941C14.7439 16.2943 13.523 16.8 12.25 16.8Z"/>
</mask>
<path fill-rule="evenodd" clip-rule="evenodd" d="M12.9256 1.44H11.5744L10.8004 4.5336L10.024 4.7736C9.57158 4.91301 9.13325 5.09461 8.7148 5.316L7.996 5.6964L5.26 4.0548L4.3048 5.0112L5.9464 7.7472L5.566 8.4648C5.3442 8.88321 5.1622 9.32154 5.0224 9.774L4.7836 10.5504L1.69 11.3244V12.6756L4.7836 13.4496L5.0236 14.226C5.162 14.6804 5.3428 15.1168 5.566 15.5352L5.9464 16.254L4.3048 18.99L5.2612 19.9452L7.9972 18.3036L8.7148 18.684C9.1332 18.9064 9.5696 19.0876 10.024 19.2276L10.8004 19.4664L11.5744 22.56H12.9256L13.6996 19.4664L14.476 19.2264C14.9284 19.087 15.3667 18.9054 15.7852 18.684L16.504 18.3036L19.24 19.9452L20.1952 18.9888L18.5536 16.2528L18.934 15.5352C19.1564 15.1168 19.3376 14.6804 19.4776 14.226L19.7164 13.4496L22.81 12.6756V11.3244L19.7164 10.5504L19.4764 9.774C19.337 9.32158 19.1554 8.88325 18.934 8.4648L18.5536 7.746L20.1952 5.01L19.2388 4.0548L16.5028 5.6964L15.7852 5.316C15.3668 5.0942 14.9285 4.9122 14.476 4.7724L13.6996 4.5336L12.9256 1.44ZM16.4596 4.044L18.6592 2.724C18.8886 2.58643 19.1573 2.52943 19.4228 2.56204C19.6882 2.59465 19.9352 2.71501 20.1244 2.904L21.346 4.1256C21.535 4.31484 21.6553 4.56179 21.688 4.82725C21.7206 5.0927 21.6636 5.36144 21.526 5.5908L20.206 7.7904C20.47 8.2864 20.686 8.8064 20.854 9.3504L23.3416 9.9732C23.6011 10.0382 23.8314 10.1881 23.996 10.399C24.1606 10.6098 24.25 10.8697 24.25 11.1372V12.8628C24.25 13.1303 24.1606 13.3902 23.996 13.601C23.8314 13.8119 23.6011 13.9618 23.3416 14.0268L20.854 14.6496C20.686 15.1936 20.47 15.7136 20.206 16.2096L21.526 18.4092C21.6636 18.6386 21.7206 18.9073 21.688 19.1728C21.6553 19.4382 21.535 19.6852 21.346 19.8744L20.1244 21.096C19.9352 21.285 19.6882 21.4053 19.4228 21.438C19.1573 21.4706 18.8886 21.4136 18.6592 21.276L16.4596 19.956C15.9636 20.22 15.4436 20.436 14.8996 20.604L14.2768 23.0916C14.2118 23.3511 14.0619 23.5814 13.851 23.746C13.6402 23.9106 13.3803 24 13.1128 24H11.3872C11.1197 24 10.8598 23.9106 10.649 23.746C10.4381 23.5814 10.2882 23.3511 10.2232 23.0916L9.6004 20.604C9.06123 20.4374 8.53893 20.2204 8.0404 19.956L5.8408 21.276C5.61144 21.4136 5.3427 21.4706 5.07725 21.438C4.81179 21.4053 4.56484 21.285 4.3756 21.096L3.154 19.8744C2.96501 19.6852 2.84465 19.4382 2.81204 19.1728C2.77943 18.9073 2.83643 18.6386 2.974 18.4092L4.294 16.2096C4.02957 15.7111 3.81261 15.1888 3.646 14.6496L1.1584 14.0268C0.899103 13.9618 0.668918 13.8122 0.504355 13.6015C0.339792 13.3909 0.250274 13.1313 0.25 12.864V11.1384C0.250007 10.8709 0.339403 10.611 0.503986 10.4002C0.66857 10.1893 0.898904 10.0394 1.1584 9.9744L3.646 9.3516C3.814 8.8076 4.03 8.2876 4.294 7.7916L2.974 5.592C2.83643 5.36264 2.77943 5.0939 2.81204 4.82845C2.84465 4.56299 2.96501 4.31604 3.154 4.1268L4.3756 2.904C4.56484 2.71501 4.81179 2.59465 5.07725 2.56204C5.3427 2.52943 5.61144 2.58643 5.8408 2.724L8.0404 4.044C8.5364 3.78 9.0564 3.564 9.6004 3.396L10.2232 0.9084C10.2882 0.649103 10.4378 0.418918 10.6485 0.254355C10.8591 0.0897924 11.1187 0.000274371 11.386 0H13.1116C13.3791 7.03252e-06 13.639 0.0894026 13.8499 0.253986C14.0607 0.41857 14.2106 0.648904 14.2756 0.9084L14.8984 3.396C15.4424 3.564 15.9624 3.78 16.4584 4.044H16.4596ZM12.25 15.36C13.1411 15.36 13.9958 15.006 14.6259 14.3759C15.256 13.7458 15.61 12.8911 15.61 12C15.61 11.1089 15.256 10.2542 14.6259 9.62412C13.9958 8.994 13.1411 8.64 12.25 8.64C11.3589 8.64 10.5042 8.994 9.87412 9.62412C9.244 10.2542 8.89 11.1089 8.89 12C8.89 12.8911 9.244 13.7458 9.87412 14.3759C10.5042 15.006 11.3589 15.36 12.25 15.36ZM12.25 16.8C10.977 16.8 9.75606 16.2943 8.85589 15.3941C7.95571 14.4939 7.45 13.273 7.45 12C7.45 10.727 7.95571 9.50606 8.85589 8.60589C9.75606 7.70571 10.977 7.2 12.25 7.2C13.523 7.2 14.7439 7.70571 15.6441 8.60589C16.5443 9.50606 17.05 10.727 17.05 12C17.05 13.273 16.5443 14.4939 15.6441 15.3941C14.7439 16.2943 13.523 16.8 12.25 16.8Z" fill="#0E121B" stroke="#0760FB" stroke-width="2" mask="url(#path-1-inside-1_1_56)"/>
</svg>
